<svg width="450" height="227" viewBox="0 0 450 227" fill="none" xmlns="http://www.w3.org/2000/svg">
<path d="M0 225.6V159.931H46.5795V175.228H17.4808V185.085H42.9115V199.534H17.4808V210.319H47.9608V225.616H0V225.6Z" fill="white"/>
<path d="M61.2207 225.6V159.931H79.3461V209.551H107.263V225.6H61.2207Z" fill="white"/>
<path d="M150.098 225.6V159.931H195.388V175.98H168.208V186.765H191.905V201.678H168.208V225.6H150.083H150.098Z" fill="white"/>
<path d="M229.168 226.544C223.981 226.544 219.346 225.424 215.263 223.168C211.181 220.912 207.973 217.839 205.656 213.919C203.339 210.015 202.172 205.55 202.172 200.542C202.172 195.534 203.339 191.053 205.656 187.117C207.973 183.181 211.166 180.093 215.263 177.869C219.346 175.66 223.996 174.54 229.168 174.54C234.34 174.54 238.975 175.66 243.027 177.869C247.079 180.093 250.271 183.165 252.589 187.117C254.906 191.053 256.072 195.534 256.072 200.542C256.072 205.55 254.921 209.999 252.589 213.919C250.271 217.839 247.079 220.912 243.027 223.168C238.96 225.424 234.356 226.544 229.168 226.544ZM229.168 211.823C231.977 211.823 234.294 210.767 236.121 208.639C237.947 206.511 238.868 203.822 238.868 200.574C238.868 197.326 237.947 194.542 236.121 192.414C234.294 190.285 231.977 189.229 229.168 189.229C226.36 189.229 223.95 190.285 222.108 192.414C220.282 194.542 219.361 197.262 219.361 200.574C219.361 203.886 220.282 206.511 222.108 208.639C223.935 210.767 226.283 211.823 229.168 211.823Z" fill="white"/>
<path d="M266.324 225.6V175.596H282.255L282.716 182.621C284.358 180.189 286.43 178.237 288.885 176.748C291.372 175.292 294.027 174.54 296.897 174.54C298.002 174.54 299.03 174.62 300.012 174.78C300.994 174.924 301.9 175.148 302.759 175.388L298.094 194.718C297.48 194.286 296.559 193.886 295.3 193.55C294.042 193.214 292.722 193.038 291.325 193.038C288.885 193.038 286.951 193.822 285.57 195.39C284.174 196.958 283.468 199.038 283.468 201.662V225.584H266.34L266.324 225.6Z" fill="white"/>
<path d="M327.469 226.64C321.974 226.64 317.738 224.896 314.746 221.392C311.753 217.887 310.264 212.927 310.264 206.479V175.596H327.284V204.671C327.284 207.103 327.883 208.991 329.065 210.303C330.247 211.615 331.889 212.287 333.961 212.287C336.033 212.287 337.828 211.631 339.179 210.303C340.514 208.991 341.189 207.343 341.189 205.327V175.596H358.21V225.6H342.463L341.911 219.68C340.268 221.808 338.181 223.488 335.634 224.752C333.101 226 330.369 226.624 327.438 226.624L327.469 226.64Z" fill="white"/>
<path d="M372.13 225.6V175.596H388.06L388.429 180.668C390.194 178.476 392.327 176.908 394.782 175.98C397.253 175.036 399.678 174.572 402.057 174.572C404.989 174.572 407.628 175.148 410.007 176.316C412.386 177.484 414.366 179.612 415.962 182.749C417.788 179.996 420.229 177.948 423.237 176.604C426.245 175.26 429.145 174.588 431.893 174.588C437.817 174.588 442.283 176.332 445.352 179.788C448.406 183.261 449.926 188.285 449.926 194.845V225.616H432.906V196.334C432.906 191.389 430.834 188.909 426.675 188.909C424.603 188.909 422.899 189.565 421.548 190.893C420.213 192.205 419.538 193.869 419.538 195.87V225.6H402.518V196.238C402.518 193.853 401.965 192.045 400.875 190.797C399.77 189.549 398.251 188.925 396.302 188.925C394.23 188.925 392.526 189.581 391.222 190.909C389.902 192.221 389.257 193.853 389.257 195.79V225.616H372.145L372.13 225.6Z" fill="white"/>
<path d="M282.692 0C281.956 0.800057 281.508 1.34409 281.012 1.82413C272.083 10.7528 263.155 19.7134 254.146 28.578C253.298 29.4101 251.826 30.0021 250.642 30.0181C240.481 30.1301 230.32 30.0821 220.159 30.0821C219.295 30.0821 218.431 30.0821 217.231 30.0821C217.231 31.2182 217.231 32.1463 217.231 33.0743C217.231 43.2351 217.263 53.3798 217.183 63.5405C217.183 64.5486 216.847 65.8447 216.175 66.5167C206.783 76.0214 197.31 85.43 187.853 94.8547C187.757 94.9507 187.597 95.0147 187.213 95.2227V0H282.692Z" fill="white"/>
<path d="M246.305 74.3252C254.365 74.3252 260.898 67.7917 260.898 59.7322C260.898 51.6727 254.365 45.1392 246.305 45.1392C238.246 45.1392 231.712 51.6727 231.712 59.7322C231.712 67.7917 238.246 74.3252 246.305 74.3252Z" fill="white"/>
</svg>
